<?xml version="1.0" encoding="UTF-8"?>
<!-- Created with Inkscape (http://www.inkscape.org/) -->
<svg width="20" height="20" version="1.1" viewBox="0 0 5.2915 5.2916" xmlns="http://www.w3.org/2000/svg">
 <g transform="translate(.04483 -1.0184)">
  <g transform="translate(-110.07,29.706)">
   <path d="m113.39-7.2562c-1.0051 0-1.826 0.82093-1.826 1.826v1.7475l-1.3474-1.0908v0.59998l1.6805 1.6799 1.6763-1.6799v-0.59998l-1.3454 1.0899v-1.7465c0-0.64636 0.51561-1.1617 1.162-1.1617 0.64531 0 1.1616 0.51552 1.1616 1.1617v2.8419h0.66436v-2.8419c0-1.0053-0.8216-1.826-1.826-1.826z" fill="#fff"/>
  </g>
  <g transform="matrix(-1,0,0,1,120.65,29.706)">
   <path d="m113.39-7.2562c-1.0051 0-1.826 0.82093-1.826 1.826v1.7475l-1.3474-1.0908v0.59998l1.6805 1.6799 1.6763-1.6799v-0.59998l-1.3454 1.0899v-1.7465c0-0.64636 0.51561-1.1617 1.162-1.1617 0.64531 0 1.1616 0.51552 1.1616 1.1617v2.8419h0.66436v-2.8419c0-1.0053-0.8216-1.826-1.826-1.826z" fill="#fff"/>
  </g>
  <g fill="#fff">
   <path d="m0.53033 4.5138-0.004268-2.9672h2.9721l0.53032 0.53031-2.2124 0.23232 2.9495 2.9495-0.52443 0.52345-2.9486-2.9486-0.23232 2.2104z"/>
  </g>
 </g>
</svg>
