<?xml version="1.0" encoding="UTF-8"?>
<!-- Created with Inkscape (http://www.inkscape.org/) -->
<svg width="40" height="100" version="1.1" viewBox="0 0 10.583 26.458" xmlns="http://www.w3.org/2000/svg">
 <g transform="translate(.04483 -1.0184)">
  <g transform="translate(-110.07 29.706)">
   <path d="m113.39-7.2562c-1.0051 0-1.826 0.82093-1.826 1.826v1.7475l-1.3474-1.0908v0.59998l1.6805 1.6799 1.6763-1.6799v-0.59998l-1.3454 1.0899v-1.7465c0-0.64636 0.51561-1.1617 1.162-1.1617 0.64531 0 1.1616 0.51552 1.1616 1.1617v2.8419h0.66436v-2.8419c0-1.0053-0.8216-1.826-1.826-1.826z" fill="#4c4a4c"/>
  </g>
  <g transform="matrix(-1 0 0 1 120.65 29.706)">
   <path d="m113.39-7.2562c-1.0051 0-1.826 0.82093-1.826 1.826v1.7475l-1.3474-1.0908v0.59998l1.6805 1.6799 1.6763-1.6799v-0.59998l-1.3454 1.0899v-1.7465c0-0.64636 0.51561-1.1617 1.162-1.1617 0.64531 0 1.1616 0.51552 1.1616 1.1617v2.8419h0.66436v-2.8419c0-1.0053-0.8216-1.826-1.826-1.826z" fill="#4c4a4c"/>
  </g>
  <g fill="#4c4a4c">
   <path d="m0.67345 8.288 1.9724-1.9779 1.9779 1.9779v0.70574l-1.6274-1.3174v3.9254h-0.69651v-3.9254l-1.6264 1.3174z"/>
   <path d="m0.53033 15.097-0.004268-2.9672h2.9721l0.53032 0.53031-2.2124 0.23232 2.9495 2.9495-0.52443 0.52345-2.9486-2.9486-0.23232 2.2104z"/>
   <path d="m3.4948 21.653-2.9656 0.0039v-2.9695l0.53003-0.53003 0.2322 2.2102 2.9479-2.947 0.52316 0.52317-2.947 2.948 2.2092 0.23121z"/>
   <path d="m7.0886 12.133 2.9656-0.0039v2.9705l-0.53002 0.52903-0.2322-2.2102-2.948 2.948-0.52316-0.52415 2.947-2.947-2.2093-0.23219z"/>
   <path d="m10.051 18.69 0.0036 2.9638h-2.9668l-0.52953-0.52953 2.2082-0.23296-2.9452-2.9442 0.52367-0.52268 2.9442 2.9442 0.23197-2.2082z"/>
   <path d="m3.2695 1.6892 1.9773 1.9727-1.9773 1.9773h-0.70586l1.3176-1.6267h-3.9261v-0.69756h3.9261l-1.3176-1.6258z"/>
   <path d="m7.2248 5.6394-1.9779-1.9724 1.9779-1.9779h0.70574l-1.3174 1.6274h3.9254v0.69651h-3.9254l1.3174 1.6264z"/>
  </g>
 </g>
</svg>
